/* XPM */
static char *cb91731a70be4c21ef2090b5b029f0f9[] = {
/* columns rows colors chars-per-pixel */
"16 16 18 1 ",
"  c black",
". c #101010",
"X c #202020",
"o c gray19",
"O c gray25",
"+ c #505050",
"@ c #606060",
"# c gray44",
"$ c #808080",
"% c gray56",
"& c #9F9F9F",
"* c #AFAFAF",
"= c gray75",
"- c gray81",
"; c #DFDFDF",
": c #EFEFEF",
"> c gray100",
", c None",
/* pixels */
",,,,,,,,,,,,,,,,",
",,,,        ,,,,",
",,,          ,,,",
",,,          ,,,",
",,    %===*o  ,,",
",,    +===>-  ,,",
",   +->>>O;:   ,",
",  X>-@&>>>%   ,",
",  #>.$$>*;>O  ,",
",  #>oo$>OO>$  ,",
",, X>>=*>&:>O ,,",
",,  O==%=%=#  ,,",
",,,          ,,,",
",,,          ,,,",
",,,,        ,,,,",
",,,,,,,,,,,,,,,,"
};
