/* XPM */
static char *a36c92d15e334066c6af4701ebc613ea[] = {
/* columns rows colors chars-per-pixel */
"64 64 18 1 ",
"  c black",
". c #101010",
"X c #202020",
"o c gray19",
"O c gray25",
"+ c #505050",
"@ c #606060",
"# c gray44",
"$ c #808080",
"% c gray56",
"& c #9F9F9F",
"* c #AFAFAF",
"= c gray75",
"- c gray81",
"; c #DFDFDF",
": c #EFEFEF",
"> c gray100",
", c None",
/* pixels */
",,,,,,,,,,,,,,,,,,,,,,,,,,,,,,,,,,,,,,,,,,,,,,,,,,,,,,,,,,,,,,,,",
",,,,,,,,,,,,,,,,,,,,,,,,,,,,,,,,,,,,,,,,,,,,,,,,,,,,,,,,,,,,,,,,",
",,,,,,,,,,,,,,,,,,,,,,,,,,,,,,,,,,,,,,,,,,,,,,,,,,,,,,,,,,,,,,,,",
",,,,,,,,,,,,,,,,,,,,,,,,,,,,,,,,,,,,,,,,,,,,,,,,,,,,,,,,,,,,,,,,",
",,,,,,,,,,,,,,,,,,,,,,,,,,,,,,,,,,,,,,,,,,,,,,,,,,,,,,,,,,,,,,,,",
",,,,,,,,,,,,,,,,,,,,,,,,,,,,,,,,,,,,,,,,,,,,,,,,,,,,,,,,,,,,,,,,",
",,,,,,,,,,,,,,,,,                               ,,,,,,,,,,,,,,,,",
",,,,,,,,,,,,,,,,                                ,,,,,,,,,,,,,,,,",
",,,,,,,,,,,,,,,                                  ,,,,,,,,,,,,,,,",
",,,,,,,,,,,,,,,                                  ,,,,,,,,,,,,,,,",
",,,,,,,,,,,,,,                                    ,,,,,,,,,,,,,,",
",,,,,,,,,,,,,,                                    ,,,,,,,,,,,,,,",
",,,,,,,,,,,,,                                      ,,,,,,,,,,,,,",
",,,,,,,,,,,,                                        ,,,,,,,,,,,,",
",,,,,,,,,,,,                                        ,,,,,,,,,,,,",
",,,,,,,,,,,                                          ,,,,,,,,,,,",
",,,,,,,,,,,                                          ,,,,,,,,,,,",
",,,,,,,,,,               $>>>>>>>>>>>>:=*#X           ,,,,,,,,,,",
",,,,,,,,,,               $>>>>>>>>>>>>>>>>>&.         ,,,,,,,,,,",
",,,,,,,,,                o>>>>>>>>>>>>>>>>>>:o         ,,,,,,,,,",
",,,,,,,,                  =>>>>>>>>>>>>>>>>>>;.         ,,,,,,,,",
",,,,,,,,                  .->>>>>>>>>>>>>>>>>>$         ,,,,,,,,",
",,,,,,,                     +$=========:>>>>>>:          ,,,,,,,",
",,,,,,,                                 #>>>>>>o         ,,,,,,,",
",,,,,,                 oO$$$$$$$$$$$O    *>>>>>O          ,,,,,,",
",,,,,               @=>>>>>>>>>>>>>>$    $>>>>>O          ,,,,,,",
",,,,,             o->>>>>>>>>>>>>>>>$    &>>>>>X           ,,,,,",
",,,,             o:>>>>>>>>>>>>>>>>>$   o>>>>>-             ,,,,",
",,,,            .:>>>>>>>>>:==;>>>>>&O@&>>>>>>O             ,,,,",
",,,             =>>>>>:%+.    $>>>>>>>>>>>>>>$               ,,,",
",,,            O>>>>>-.       $>>>>>>>>>>>>>=                ,,,",
",,             *>>>>-.        $>>>>>>>>>>>>>>;o               ,,",
",,             >>>>>O         $>>>>>>>>>>>>>>>:+              ,,",
",,,           O>>>>;    .@.   $>>>>>>>>>>>>>>>>:X            ,,,",
",,,           +>>>>=    ;>:   $>>>>>$  X@=>>>>>>&            ,,,",
",,,,          $>>>>$    >>>   $>>>>>$     @>>>>>>.          ,,,,",
",,,,          $>>>>&    +=@   $>>>>>$      =>>>>>O          ,,,,",
",,,,,         +>>>>;          $>>>>>$      $>>>>>@         ,,,,,",
",,,,,,        O>>>>>O         $>>>>>$      $>>>>>$         ,,,,,",
",,,,,,         :>>>>:o        $>>>>>$      =>>>>>O        ,,,,,,",
",,,,,,,        &>>>>>>$o      $>>>>>$    X&>>>>>>X       ,,,,,,,",
",,,,,,,        X>>>>>>>>>-=== $>>>>>$ &=->>>>>>>-        ,,,,,,,",
",,,,,,,,        %>>>>>>>>>>>> $>>>>>$ =>>>>>>>>>+       ,,,,,,,,",
",,,,,,,,        .->>>>>>>>>>= $>>>>>$ =>>>>>>>>*        ,,,,,,,,",
",,,,,,,,,        .=>>>>>>>>>= $>>>>>$ =>>>>>>>-.       ,,,,,,,,,",
",,,,,,,,,,         #:>>>>>>>= $>>>>>$ =>>>>>>%.       ,,,,,,,,,,",
",,,,,,,,,,          .@%==>>>= $>>>>>$ =>>;=#X         ,,,,,,,,,,",
",,,,,,,,,,,                                          ,,,,,,,,,,,",
",,,,,,,,,,,                                          ,,,,,,,,,,,",
",,,,,,,,,,,,                                        ,,,,,,,,,,,,",
",,,,,,,,,,,,                                        ,,,,,,,,,,,,",
",,,,,,,,,,,,,                                      ,,,,,,,,,,,,,",
",,,,,,,,,,,,,,                                    ,,,,,,,,,,,,,,",
",,,,,,,,,,,,,,                                    ,,,,,,,,,,,,,,",
",,,,,,,,,,,,,,,                                  ,,,,,,,,,,,,,,,",
",,,,,,,,,,,,,,,                                  ,,,,,,,,,,,,,,,",
",,,,,,,,,,,,,,,,                                ,,,,,,,,,,,,,,,,",
",,,,,,,,,,,,,,,,                               ,,,,,,,,,,,,,,,,,",
",,,,,,,,,,,,,,,,,,,,,,,,,,,,,,,,,,,,,,,,,,,,,,,,,,,,,,,,,,,,,,,,",
",,,,,,,,,,,,,,,,,,,,,,,,,,,,,,,,,,,,,,,,,,,,,,,,,,,,,,,,,,,,,,,,",
",,,,,,,,,,,,,,,,,,,,,,,,,,,,,,,,,,,,,,,,,,,,,,,,,,,,,,,,,,,,,,,,",
",,,,,,,,,,,,,,,,,,,,,,,,,,,,,,,,,,,,,,,,,,,,,,,,,,,,,,,,,,,,,,,,",
",,,,,,,,,,,,,,,,,,,,,,,,,,,,,,,,,,,,,,,,,,,,,,,,,,,,,,,,,,,,,,,,",
",,,,,,,,,,,,,,,,,,,,,,,,,,,,,,,,,,,,,,,,,,,,,,,,,,,,,,,,,,,,,,,,"
};
