/* XPM */
static char *_99264ce4d4a4b5283dc34cf917ce080[] = {
/* columns rows colors chars-per-pixel */
"128 128 18 1 ",
"  c black",
". c #101010",
"X c #202020",
"o c gray19",
"O c gray25",
"+ c #505050",
"@ c #606060",
"# c gray44",
"$ c #808080",
"% c gray56",
"& c #9F9F9F",
"* c #AFAFAF",
"= c gray75",
"- c gray81",
"; c #DFDFDF",
": c #EFEFEF",
"> c gray100",
", c None",
/* pixels */
",,,,,,,,,,,,,,,,,,,,,,,,,,,,,,,,,,,,,,,,,,,,,,,,,,,,,,,,,,,,,,,,,,,,,,,,,,,,,,,,,,,,,,,,,,,,,,,,,,,,,,,,,,,,,,,,,,,,,,,,,,,,,,,,",
",,,,,,,,,,,,,,,,,,,,,,,,,,,,,,,,,,,,,,,,,,,,,,,,,,,,,,,,,,,,,,,,,,,,,,,,,,,,,,,,,,,,,,,,,,,,,,,,,,,,,,,,,,,,,,,,,,,,,,,,,,,,,,,,",
",,,,,,,,,,,,,,,,,,,,,,,,,,,,,,,,,,,,,,,,,,,,,,,,,,,,,,,,,,,,,,,,,,,,,,,,,,,,,,,,,,,,,,,,,,,,,,,,,,,,,,,,,,,,,,,,,,,,,,,,,,,,,,,,",
",,,,,,,,,,,,,,,,,,,,,,,,,,,,,,,,,,,,,,,,,,,,,,,,,,,,,,,,,,,,,,,,,,,,,,,,,,,,,,,,,,,,,,,,,,,,,,,,,,,,,,,,,,,,,,,,,,,,,,,,,,,,,,,,",
",,,,,,,,,,,,,,,,,,,,,,,,,,,,,,,,,,,,,,,,,,,,,,,,,,,,,,,,,,,,,,,,,,,,,,,,,,,,,,,,,,,,,,,,,,,,,,,,,,,,,,,,,,,,,,,,,,,,,,,,,,,,,,,,",
",,,,,,,,,,,,,,,,,,,,,,,,,,,,,,,,,,,,,,,,,,,,,,,,,,,,,,,,,,,,,,,,,,,,,,,,,,,,,,,,,,,,,,,,,,,,,,,,,,,,,,,,,,,,,,,,,,,,,,,,,,,,,,,,",
",,,,,,,,,,,,,,,,,,,,,,,,,,,,,,,,,,,,,,,,,,,,,,,,,,,,,,,,,,,,,,,,,,,,,,,,,,,,,,,,,,,,,,,,,,,,,,,,,,,,,,,,,,,,,,,,,,,,,,,,,,,,,,,,",
",,,,,,,,,,,,,,,,,,,,,,,,,,,,,,,,,,,,,,,,,,,,,,,,,,,,,,,,,,,,,,,,,,,,,,,,,,,,,,,,,,,,,,,,,,,,,,,,,,,,,,,,,,,,,,,,,,,,,,,,,,,,,,,,",
",,,,,,,,,,,,,,,,,,,,,,,,,,,,,,,,,,,,,,,,,,,,,,,,,,,,,,,,,,,,,,,,,,,,,,,,,,,,,,,,,,,,,,,,,,,,,,,,,,,,,,,,,,,,,,,,,,,,,,,,,,,,,,,,",
",,,,,,,,,,,,,,,,,,,,,,,,,,,,,,,,,,,,,,,,,,,,,,,,,,,,,,,,,,,,,,,,,,,,,,,,,,,,,,,,,,,,,,,,,,,,,,,,,,,,,,,,,,,,,,,,,,,,,,,,,,,,,,,,",
",,,,,,,,,,,,,,,,,,,,,,,,,,,,,,,,,,,,,,,,,,,,,,,,,,,,,,,,,,,,,,,,,,,,,,,,,,,,,,,,,,,,,,,,,,,,,,,,,,,,,,,,,,,,,,,,,,,,,,,,,,,,,,,,",
",,,,,,,,,,,,,,,,,,,,,,,,,,,,,,,,,,,,,,,,,,,,,,,,,,,,,,,,,,,,,,,,,,,,,,,,,,,,,,,,,,,,,,,,,,,,,,,,,,,,,,,,,,,,,,,,,,,,,,,,,,,,,,,,",
",,,,,,,,,,,,,,,,,,,,,,,,,,,,,,,,,,                                                             ,,,,,,,,,,,,,,,,,,,,,,,,,,,,,,,,,",
",,,,,,,,,,,,,,,,,,,,,,,,,,,,,,,,,                                                              ,,,,,,,,,,,,,,,,,,,,,,,,,,,,,,,,,",
",,,,,,,,,,,,,,,,,,,,,,,,,,,,,,,,                                                                ,,,,,,,,,,,,,,,,,,,,,,,,,,,,,,,,",
",,,,,,,,,,,,,,,,,,,,,,,,,,,,,,,,                                                                ,,,,,,,,,,,,,,,,,,,,,,,,,,,,,,,,",
",,,,,,,,,,,,,,,,,,,,,,,,,,,,,,,                                                                  ,,,,,,,,,,,,,,,,,,,,,,,,,,,,,,,",
",,,,,,,,,,,,,,,,,,,,,,,,,,,,,,,                                                                  ,,,,,,,,,,,,,,,,,,,,,,,,,,,,,,,",
",,,,,,,,,,,,,,,,,,,,,,,,,,,,,,                                                                    ,,,,,,,,,,,,,,,,,,,,,,,,,,,,,,",
",,,,,,,,,,,,,,,,,,,,,,,,,,,,,,                                                                     ,,,,,,,,,,,,,,,,,,,,,,,,,,,,,",
",,,,,,,,,,,,,,,,,,,,,,,,,,,,,                                                                      ,,,,,,,,,,,,,,,,,,,,,,,,,,,,,",
",,,,,,,,,,,,,,,,,,,,,,,,,,,,                                                                        ,,,,,,,,,,,,,,,,,,,,,,,,,,,,",
",,,,,,,,,,,,,,,,,,,,,,,,,,,,                                                                        ,,,,,,,,,,,,,,,,,,,,,,,,,,,,",
",,,,,,,,,,,,,,,,,,,,,,,,,,,                                                                          ,,,,,,,,,,,,,,,,,,,,,,,,,,,",
",,,,,,,,,,,,,,,,,,,,,,,,,,,                                                                          ,,,,,,,,,,,,,,,,,,,,,,,,,,,",
",,,,,,,,,,,,,,,,,,,,,,,,,,                                                                            ,,,,,,,,,,,,,,,,,,,,,,,,,,",
",,,,,,,,,,,,,,,,,,,,,,,,,                                                                              ,,,,,,,,,,,,,,,,,,,,,,,,,",
",,,,,,,,,,,,,,,,,,,,,,,,,                                                                              ,,,,,,,,,,,,,,,,,,,,,,,,,",
",,,,,,,,,,,,,,,,,,,,,,,,                                                                                ,,,,,,,,,,,,,,,,,,,,,,,,",
",,,,,,,,,,,,,,,,,,,,,,,,                                                                                ,,,,,,,,,,,,,,,,,,,,,,,,",
",,,,,,,,,,,,,,,,,,,,,,,                                                                                  ,,,,,,,,,,,,,,,,,,,,,,,",
",,,,,,,,,,,,,,,,,,,,,,,                                                                                   ,,,,,,,,,,,,,,,,,,,,,,",
",,,,,,,,,,,,,,,,,,,,,,                                                                                    ,,,,,,,,,,,,,,,,,,,,,,",
",,,,,,,,,,,,,,,,,,,,,                                                                                      ,,,,,,,,,,,,,,,,,,,,,",
",,,,,,,,,,,,,,,,,,,,,                              ;>>>>>>>>;================%$#O.                         ,,,,,,,,,,,,,,,,,,,,,",
",,,,,,,,,,,,,,,,,,,,                               :>>>>>>>>>>>>>>>>>>>>>>>>>>>>>>-%o                       ,,,,,,,,,,,,,,,,,,,,",
",,,,,,,,,,,,,,,,,,,,                               =>>>>>>>>>>>>>>>>>>>>>>>>>>>>>>>>>-@                     ,,,,,,,,,,,,,,,,,,,,",
",,,,,,,,,,,,,,,,,,,                                *>>>>>>>>>>>>>>>>>>>>>>>>>>>>>>>>>>>=X                    ,,,,,,,,,,,,,,,,,,,",
",,,,,,,,,,,,,,,,,,                                 #>>>>>>>>>>>>>>>>>>>>>>>>>>>>>>>>>>>>:@                    ,,,,,,,,,,,,,,,,,,",
",,,,,,,,,,,,,,,,,,                                 X>>>>>>>>>>>>>>>>>>>>>>>>>>>>>>>>>>>>>>@                   ,,,,,,,,,,,,,,,,,,",
",,,,,,,,,,,,,,,,,                                   &>>>>>>>>>>>>>>>>>>>>>>>>>>>>>>>>>>>>>>O                   ,,,,,,,,,,,,,,,,,",
",,,,,,,,,,,,,,,,,                                   .:>>>>>>>>>>>>>>>>>>>>>>>>>>>>>>>>>>>>>:.                  ,,,,,,,,,,,,,,,,,",
",,,,,,,,,,,,,,,,                                     o:>>>>>>>>>>>>>>>>>>>>>>>>>>>>>>>>>>>>>&                   ,,,,,,,,,,,,,,,,",
",,,,,,,,,,,,,,,,                                      X=>>>>>>>>>>>>>>>>>>>>>>>>>>>>>>>>>>>>>X                  ,,,,,,,,,,,,,,,,",
",,,,,,,,,,,,,,,                                         O&;>>>>>>>>>>>>>>>>>>>>>>>>>>>>>>>>>>%                   ,,,,,,,,,,,,,,,",
",,,,,,,,,,,,,,                                              XOOOOOOOOOOOOOOOO+$;>>>>>>>>>>>>>;                    ,,,,,,,,,,,,,,",
",,,,,,,,,,,,,,                                                                  O:>>>>>>>>>>>>X                   ,,,,,,,,,,,,,,",
",,,,,,,,,,,,,                                                                    o:>>>>>>>>>>>O                    ,,,,,,,,,,,,,",
",,,,,,,,,,,,,                                                                     @>>>>>>>>>>>@                    ,,,,,,,,,,,,,",
",,,,,,,,,,,,                                  XO$$===>>>>>>>>>>>>>>>>>>>=         .>>>>>>>>>>>$                     ,,,,,,,,,,,,",
",,,,,,,,,,,                               X#=:>>>>>>>>>>>>>>>>>>>>>>>>>>=          ->>>>>>>>>>#                     ,,,,,,,,,,,,",
",,,,,,,,,,,                             O=>>>>>>>>>>>>>>>>>>>>>>>>>>>>>>=          =>>>>>>>>>>O                      ,,,,,,,,,,,",
",,,,,,,,,,                            X=>>>>>>>>>>>>>>>>>>>>>>>>>>>>>>>>=          >>>>>>>>>>>o                       ,,,,,,,,,,",
",,,,,,,,,,                           @:>>>>>>>>>>>>>>>>>>>>>>>>>>>>>>>>>=         O>>>>>>>>>>:                        ,,,,,,,,,,",
",,,,,,,,,                           $>>>>>>>>>>>>>>>>>>>>>>>>>>>>>>>>>>>=         =>>>>>>>>>>&                         ,,,,,,,,,",
",,,,,,,,,                          %>>>>>>>>>>>>>>>>>>>>>>>>>>>>>>>>>>>>=        &>>>>>>>>>>>o                         ,,,,,,,,,",
",,,,,,,,                          @>>>>>>>>>>>>>>>>>>>>>>>>>>>>>>>>>>>>>=      O=>>>>>>>>>>>*                           ,,,,,,,,",
",,,,,,,                          o>>>>>>>>>>>>>>>>>>-==&$$$$$;>>>>>>>>>>;$$$$=;>>>>>>>>>>>>:.                           ,,,,,,,,",
",,,,,,,                         .;>>>>>>>>>>>>>-%+X          =>>>>>>>>>>>>>>>>>>>>>>>>>>>>>o                             ,,,,,,,",
",,,,,,                          $>>>>>>>>>>>>&X              =>>>>>>>>>>>>>>>>>>>>>>>>>>>:@                               ,,,,,,",
",,,,,,                         X>>>>>>>>>>>-X                =>>>>>>>>>>>>>>>>>>>>>>>>>>:o                                ,,,,,,",
",,,,,                          &>>>>>>>>>>=.                 =>>>>>>>>>>>>>>>>>>>>>>>>>>:$                                 ,,,,,",
",,,,,                         .:>>>>>>>>>-.                  =>>>>>>>>>>>>>>>>>>>>>>>>>>>>;O                               ,,,,,",
",,,,                          @>>>>>>>>>>o                   =>>>>>>>>>>>>>>>>>>>>>>>>>>>>>>%                               ,,,,",
",,,,                          *>>>>>>>>>&                    =>>>>>>>>>>>>>>>>>>>>>>>>>>>>>>>*.                             ,,,,",
",,,,,                         >>>>>>>>>>X                    =>>>>>>>>>>>>>>>>>>>>>>>>>>>>>>>>=                            ,,,,,",
",,,,,                        o>>>>>>>>>-                     =>>>>>>>>>>>>>>>>>>>>>>>>>>>>>>>>>%                           ,,,,,",
",,,,,,                       @>>>>>>>>>$         .$&X        =>>>>>>>>>>:===>>>>>>>>>>>>>>>>>>>>O                         ,,,,,,",
",,,,,,                       $>>>>>>>>>O        +;>>:$       =>>>>>>>>>>=      O@*>>>>>>>>>>>>>>;                         ,,,,,,",
",,,,,,,                      &>>>>>>>>>o        =>>>>>       =>>>>>>>>>>=         .$>>>>>>>>>>>>>@                       ,,,,,,,",
",,,,,,,,                     =>>>>>>>>>         =>>>>>       =>>>>>>>>>>=           o:>>>>>>>>>>>*                       ,,,,,,,",
",,,,,,,,                     =>>>>>>>>>         =>>>>>       =>>>>>>>>>>=            o>>>>>>>>>>>>.                     ,,,,,,,,",
",,,,,,,,,                    =>>>>>>>>>         X=>>;O       =>>>>>>>>>>=             $>>>>>>>>>>>O                    ,,,,,,,,,",
",,,,,,,,,                    =>>>>>>>>>o          O#         =>>>>>>>>>>=             X>>>>>>>>>>>$                    ,,,,,,,,,",
",,,,,,,,,,                   &>>>>>>>>>@                     =>>>>>>>>>>=              ;>>>>>>>>>>$                   ,,,,,,,,,,",
",,,,,,,,,,                   $>>>>>>>>>*                     =>>>>>>>>>>=              =>>>>>>>>>>=                   ,,,,,,,,,,",
",,,,,,,,,,,                  @>>>>>>>>>>X                    =>>>>>>>>>>=              =>>>>>>>>>>=                  ,,,,,,,,,,,",
",,,,,,,,,,,,                 o>>>>>>>>>>&                    =>>>>>>>>>>=              ;>>>>>>>>>>*                  ,,,,,,,,,,,",
",,,,,,,,,,,,                  :>>>>>>>>>>@                   =>>>>>>>>>>=             X>>>>>>>>>>>$                 ,,,,,,,,,,,,",
",,,,,,,,,,,,,                 &>>>>>>>>>>>#                  =>>>>>>>>>>=             *>>>>>>>>>>>#                ,,,,,,,,,,,,,",
",,,,,,,,,,,,,                 +>>>>>>>>>>>>=X                =>>>>>>>>>>=            #>>>>>>>>>>>>O                ,,,,,,,,,,,,,",
",,,,,,,,,,,,,,                 ;>>>>>>>>>>>>>&+.             =>>>>>>>>>>=          o*>>>>>>>>>>>>:                ,,,,,,,,,,,,,,",
",,,,,,,,,,,,,,                 @>>>>>>>>>>>>>>>>;=&$$#OOOo   =>>>>>>>>>>=   oOO+$&;>>>>>>>>>>>>>>&                ,,,,,,,,,,,,,,",
",,,,,,,,,,,,,,,                 ;>>>>>>>>>>>>>>>>>>>>>>>>=   =>>>>>>>>>>=   $>>>>>>>>>>>>>>>>>>>>O               ,,,,,,,,,,,,,,,",
",,,,,,,,,,,,,,,,                +>>>>>>>>>>>>>>>>>>>>>>>>=   =>>>>>>>>>>=   $>>>>>>>>>>>>>>>>>>>=               ,,,,,,,,,,,,,,,,",
",,,,,,,,,,,,,,,,                 &>>>>>>>>>>>>>>>>>>>>>>>*   =>>>>>>>>>>=   $>>>>>>>>>>>>>>>>>>>o               ,,,,,,,,,,,,,,,,",
",,,,,,,,,,,,,,,,,                .->>>>>>>>>>>>>>>>>>>>>>$   =>>>>>>>>>>=   $>>>>>>>>>>>>>>>>>>%               ,,,,,,,,,,,,,,,,,",
",,,,,,,,,,,,,,,,,                 .->>>>>>>>>>>>>>>>>>>>>$   =>>>>>>>>>>=   $>>>>>>>>>>>>>>>>>-                ,,,,,,,,,,,,,,,,,",
",,,,,,,,,,,,,,,,,,                 .->>>>>>>>>>>>>>>>>>>>$   =>>>>>>>>>>=   $>>>>>>>>>>>>>>>>-.               ,,,,,,,,,,,,,,,,,,",
",,,,,,,,,,,,,,,,,,                  .*>>>>>>>>>>>>>>>>>>>$   =>>>>>>>>>>=   $>>>>>>>>>>>>>>>-.                ,,,,,,,,,,,,,,,,,,",
",,,,,,,,,,,,,,,,,,,                   @:>>>>>>>>>>>>>>>>>$   =>>>>>>>>>>=   $>>>>>>>>>>>>>>%.                ,,,,,,,,,,,,,,,,,,,",
",,,,,,,,,,,,,,,,,,,,                   .$:>>>>>>>>>>>>>>>$   =>>>>>>>>>>=   $>>>>>>>>>>>>-O                 ,,,,,,,,,,,,,,,,,,,,",
",,,,,,,,,,,,,,,,,,,,                     .@*:>>>>>>>>>>>>$   ->>>>>>>>>>=   $>>>>>>>>>:&O                   ,,,,,,,,,,,,,,,,,,,,",
",,,,,,,,,,,,,,,,,,,,,                        XO#$$=======@   ======;>>>>=   $>>:===$#o                     ,,,,,,,,,,,,,,,,,,,,,",
",,,,,,,,,,,,,,,,,,,,,                                                                                      ,,,,,,,,,,,,,,,,,,,,,",
",,,,,,,,,,,,,,,,,,,,,,                                                                                    ,,,,,,,,,,,,,,,,,,,,,,",
",,,,,,,,,,,,,,,,,,,,,,                                                                                   ,,,,,,,,,,,,,,,,,,,,,,,",
",,,,,,,,,,,,,,,,,,,,,,,                                                                                  ,,,,,,,,,,,,,,,,,,,,,,,",
",,,,,,,,,,,,,,,,,,,,,,,,                                                                                ,,,,,,,,,,,,,,,,,,,,,,,,",
",,,,,,,,,,,,,,,,,,,,,,,,                                                                                ,,,,,,,,,,,,,,,,,,,,,,,,",
",,,,,,,,,,,,,,,,,,,,,,,,,                                                                              ,,,,,,,,,,,,,,,,,,,,,,,,,",
",,,,,,,,,,,,,,,,,,,,,,,,,                                                                              ,,,,,,,,,,,,,,,,,,,,,,,,,",
",,,,,,,,,,,,,,,,,,,,,,,,,,                                                                            ,,,,,,,,,,,,,,,,,,,,,,,,,,",
",,,,,,,,,,,,,,,,,,,,,,,,,,,                                                                          ,,,,,,,,,,,,,,,,,,,,,,,,,,,",
",,,,,,,,,,,,,,,,,,,,,,,,,,,                                                                          ,,,,,,,,,,,,,,,,,,,,,,,,,,,",
",,,,,,,,,,,,,,,,,,,,,,,,,,,,                                                                        ,,,,,,,,,,,,,,,,,,,,,,,,,,,,",
",,,,,,,,,,,,,,,,,,,,,,,,,,,,                                                                        ,,,,,,,,,,,,,,,,,,,,,,,,,,,,",
",,,,,,,,,,,,,,,,,,,,,,,,,,,,,                                                                      ,,,,,,,,,,,,,,,,,,,,,,,,,,,,,",
",,,,,,,,,,,,,,,,,,,,,,,,,,,,,                                                                     ,,,,,,,,,,,,,,,,,,,,,,,,,,,,,,",
",,,,,,,,,,,,,,,,,,,,,,,,,,,,,,                                                                    ,,,,,,,,,,,,,,,,,,,,,,,,,,,,,,",
",,,,,,,,,,,,,,,,,,,,,,,,,,,,,,,                                                                  ,,,,,,,,,,,,,,,,,,,,,,,,,,,,,,,",
",,,,,,,,,,,,,,,,,,,,,,,,,,,,,,,                                                                  ,,,,,,,,,,,,,,,,,,,,,,,,,,,,,,,",
",,,,,,,,,,,,,,,,,,,,,,,,,,,,,,,,                                                                ,,,,,,,,,,,,,,,,,,,,,,,,,,,,,,,,",
",,,,,,,,,,,,,,,,,,,,,,,,,,,,,,,,                                                                ,,,,,,,,,,,,,,,,,,,,,,,,,,,,,,,,",
",,,,,,,,,,,,,,,,,,,,,,,,,,,,,,,,,                                                              ,,,,,,,,,,,,,,,,,,,,,,,,,,,,,,,,,",
",,,,,,,,,,,,,,,,,,,,,,,,,,,,,,,,,                                                             ,,,,,,,,,,,,,,,,,,,,,,,,,,,,,,,,,,",
",,,,,,,,,,,,,,,,,,,,,,,,,,,,,,,,,,,,,,,,,,,,,,,,,,,,,,,,,,,,,,,,,,,,,,,,,,,,,,,,,,,,,,,,,,,,,,,,,,,,,,,,,,,,,,,,,,,,,,,,,,,,,,,,",
",,,,,,,,,,,,,,,,,,,,,,,,,,,,,,,,,,,,,,,,,,,,,,,,,,,,,,,,,,,,,,,,,,,,,,,,,,,,,,,,,,,,,,,,,,,,,,,,,,,,,,,,,,,,,,,,,,,,,,,,,,,,,,,,",
",,,,,,,,,,,,,,,,,,,,,,,,,,,,,,,,,,,,,,,,,,,,,,,,,,,,,,,,,,,,,,,,,,,,,,,,,,,,,,,,,,,,,,,,,,,,,,,,,,,,,,,,,,,,,,,,,,,,,,,,,,,,,,,,",
",,,,,,,,,,,,,,,,,,,,,,,,,,,,,,,,,,,,,,,,,,,,,,,,,,,,,,,,,,,,,,,,,,,,,,,,,,,,,,,,,,,,,,,,,,,,,,,,,,,,,,,,,,,,,,,,,,,,,,,,,,,,,,,,",
",,,,,,,,,,,,,,,,,,,,,,,,,,,,,,,,,,,,,,,,,,,,,,,,,,,,,,,,,,,,,,,,,,,,,,,,,,,,,,,,,,,,,,,,,,,,,,,,,,,,,,,,,,,,,,,,,,,,,,,,,,,,,,,,",
",,,,,,,,,,,,,,,,,,,,,,,,,,,,,,,,,,,,,,,,,,,,,,,,,,,,,,,,,,,,,,,,,,,,,,,,,,,,,,,,,,,,,,,,,,,,,,,,,,,,,,,,,,,,,,,,,,,,,,,,,,,,,,,,",
",,,,,,,,,,,,,,,,,,,,,,,,,,,,,,,,,,,,,,,,,,,,,,,,,,,,,,,,,,,,,,,,,,,,,,,,,,,,,,,,,,,,,,,,,,,,,,,,,,,,,,,,,,,,,,,,,,,,,,,,,,,,,,,,",
",,,,,,,,,,,,,,,,,,,,,,,,,,,,,,,,,,,,,,,,,,,,,,,,,,,,,,,,,,,,,,,,,,,,,,,,,,,,,,,,,,,,,,,,,,,,,,,,,,,,,,,,,,,,,,,,,,,,,,,,,,,,,,,,",
",,,,,,,,,,,,,,,,,,,,,,,,,,,,,,,,,,,,,,,,,,,,,,,,,,,,,,,,,,,,,,,,,,,,,,,,,,,,,,,,,,,,,,,,,,,,,,,,,,,,,,,,,,,,,,,,,,,,,,,,,,,,,,,,",
",,,,,,,,,,,,,,,,,,,,,,,,,,,,,,,,,,,,,,,,,,,,,,,,,,,,,,,,,,,,,,,,,,,,,,,,,,,,,,,,,,,,,,,,,,,,,,,,,,,,,,,,,,,,,,,,,,,,,,,,,,,,,,,,",
",,,,,,,,,,,,,,,,,,,,,,,,,,,,,,,,,,,,,,,,,,,,,,,,,,,,,,,,,,,,,,,,,,,,,,,,,,,,,,,,,,,,,,,,,,,,,,,,,,,,,,,,,,,,,,,,,,,,,,,,,,,,,,,,",
",,,,,,,,,,,,,,,,,,,,,,,,,,,,,,,,,,,,,,,,,,,,,,,,,,,,,,,,,,,,,,,,,,,,,,,,,,,,,,,,,,,,,,,,,,,,,,,,,,,,,,,,,,,,,,,,,,,,,,,,,,,,,,,,"
};
