/* XPM */
static char *d306163ee7e64ba0d9a3c574c5a63032[] = {
/* columns rows colors chars-per-pixel */
"32 32 17 1 ",
"  c black",
". c #101010",
"X c #202020",
"o c gray19",
"O c gray25",
"+ c #505050",
"@ c #606060",
"# c gray44",
"$ c #808080",
"% c gray56",
"& c #9F9F9F",
"* c gray75",
"= c gray81",
"- c #DFDFDF",
"; c #EFEFEF",
": c gray100",
"> c None",
/* pixels */
">>>>>>>>>>>>>>>>>>>>>>>>>>>>>>>>",
">>>>>>>>>>>>>>>>>>>>>>>>>>>>>>>>",
">>>>>>>>>>>>>>>>>>>>>>>>>>>>>>>>",
">>>>>>>>>>>>>>>>>>>>>>>>>>>>>>>>",
">>>>>>>>                >>>>>>>>",
">>>>>>>>                >>>>>>>>",
">>>>>>>                  >>>>>>>",
">>>>>>>                  >>>>>>>",
">>>>>>                    >>>>>>",
">>>>>>       :::::::=@    >>>>>>",
">>>>>        -::::::::$    >>>>>",
">>>>         X&****-:::     >>>>",
">>>>      .+$$$$$$X =::O    >>>>",
">>>      +;:::::::O =::X     >>>",
">>>     o:::=*$-::*=::&      >>>",
">>      *:;O   *::::::#       >>",
">>     .::% XX *:::::::$      >>",
">>>    O::O ** *::O.#::;     >>>",
">>>    O::@ XX *::O  *::O    >>>",
">>>>    ::;o   *::O .-::o   >>>>",
">>>>    &:::-*@*::#*;::-    >>>>",
">>>>>   .=::::$*::$::::+   >>>>>",
">>>>>>   .$-::$*::$::=+   >>>>>>",
">>>>>>                    >>>>>>",
">>>>>>>                  >>>>>>>",
">>>>>>>                  >>>>>>>",
">>>>>>>>                >>>>>>>>",
">>>>>>>>                >>>>>>>>",
">>>>>>>>>>>>>>>>>>>>>>>>>>>>>>>>",
">>>>>>>>>>>>>>>>>>>>>>>>>>>>>>>>",
">>>>>>>>>>>>>>>>>>>>>>>>>>>>>>>>",
">>>>>>>>>>>>>>>>>>>>>>>>>>>>>>>>"
};
